<mxfile host="65bd71144e">
    <diagram id="lRvIKwusapoY3uhv9hwN" name="Page-1">
        <mxGraphModel dx="881" dy="511" grid="0" gridSize="10" guides="1" tooltips="1" connect="1" arrows="1" fold="1" page="1" pageScale="1" pageWidth="827" pageHeight="1169" background="#FFFFFF" math="0" shadow="0">
            <root>
                <mxCell id="0"/>
                <mxCell id="1" parent="0"/>
                <mxCell id="J99O9UZvICqlicOt4eDd-3" value="" style="rounded=0;whiteSpace=wrap;html=1;" parent="1" vertex="1">
                    <mxGeometry x="37" y="123" width="459" height="238" as="geometry"/>
                </mxCell>
                <mxCell id="J99O9UZvICqlicOt4eDd-2" value="" style="shape=image;verticalLabelPosition=bottom;labelBackgroundColor=#ffffff;verticalAlign=top;aspect=fixed;imageAspect=0;image=https://jisaba.life/wp-content/uploads/2021/03/proxmox-logo.png;" parent="1" vertex="1">
                    <mxGeometry x="37" y="123" width="58" height="58" as="geometry"/>
                </mxCell>
                <mxCell id="J99O9UZvICqlicOt4eDd-4" value="VM1&lt;br&gt;(Ubuntu 20.04.2)" style="rounded=1;whiteSpace=wrap;html=1;fontFamily=Noto Sans JP;fontSource=https%3A%2F%2Ffonts.googleapis.com%2Fcss%3Ffamily%3DNoto%2BSans%2BJP;" parent="1" vertex="1">
                    <mxGeometry x="76" y="251.5" width="124.46" height="72.5" as="geometry"/>
                </mxCell>
                <mxCell id="J99O9UZvICqlicOt4eDd-13" style="edgeStyle=orthogonalEdgeStyle;rounded=0;orthogonalLoop=1;jettySize=auto;html=1;exitX=0.5;exitY=0;exitDx=0;exitDy=0;entryX=0.5;entryY=1;entryDx=0;entryDy=0;fontFamily=Noto Sans JP;fontSource=https%3A%2F%2Ffonts.googleapis.com%2Fcss%3Ffamily%3DNoto%2BSans%2BJP;endArrow=none;endFill=0;" parent="1" source="J99O9UZvICqlicOt4eDd-5" target="J99O9UZvICqlicOt4eDd-11" edge="1">
                    <mxGeometry relative="1" as="geometry"/>
                </mxCell>
                <mxCell id="J99O9UZvICqlicOt4eDd-5" value="eth0" style="rounded=0;whiteSpace=wrap;html=1;fontFamily=Noto Sans JP;fontSource=https%3A%2F%2Ffonts.googleapis.com%2Fcss%3Ffamily%3DNoto%2BSans%2BJP;" parent="1" vertex="1">
                    <mxGeometry x="123.72999999999999" y="228" width="29" height="23.5" as="geometry"/>
                </mxCell>
                <mxCell id="J99O9UZvICqlicOt4eDd-6" value="VM2&lt;br&gt;(Ubuntu 20.04.2)" style="rounded=1;whiteSpace=wrap;html=1;fontFamily=Noto Sans JP;fontSource=https%3A%2F%2Ffonts.googleapis.com%2Fcss%3Ffamily%3DNoto%2BSans%2BJP;" parent="1" vertex="1">
                    <mxGeometry x="333" y="251.5" width="124.46" height="72.5" as="geometry"/>
                </mxCell>
                <mxCell id="J99O9UZvICqlicOt4eDd-14" style="edgeStyle=orthogonalEdgeStyle;rounded=0;orthogonalLoop=1;jettySize=auto;html=1;exitX=0.5;exitY=0;exitDx=0;exitDy=0;entryX=0.5;entryY=1;entryDx=0;entryDy=0;fontFamily=Noto Sans JP;fontSource=https%3A%2F%2Ffonts.googleapis.com%2Fcss%3Ffamily%3DNoto%2BSans%2BJP;endArrow=none;endFill=0;" parent="1" source="J99O9UZvICqlicOt4eDd-7" target="J99O9UZvICqlicOt4eDd-11" edge="1">
                    <mxGeometry relative="1" as="geometry"/>
                </mxCell>
                <mxCell id="J99O9UZvICqlicOt4eDd-7" value="eth0" style="rounded=0;whiteSpace=wrap;html=1;fontFamily=Noto Sans JP;fontSource=https%3A%2F%2Ffonts.googleapis.com%2Fcss%3Ffamily%3DNoto%2BSans%2BJP;" parent="1" vertex="1">
                    <mxGeometry x="380.73" y="228" width="29" height="23.5" as="geometry"/>
                </mxCell>
                <mxCell id="J99O9UZvICqlicOt4eDd-10" style="edgeStyle=orthogonalEdgeStyle;rounded=0;orthogonalLoop=1;jettySize=auto;html=1;exitX=1;exitY=0.5;exitDx=0;exitDy=0;entryX=0;entryY=0.5;entryDx=0;entryDy=0;fontFamily=Noto Sans JP;fontSource=https%3A%2F%2Ffonts.googleapis.com%2Fcss%3Ffamily%3DNoto%2BSans%2BJP;endArrow=none;endFill=0;" parent="1" source="J99O9UZvICqlicOt4eDd-8" target="J99O9UZvICqlicOt4eDd-9" edge="1">
                    <mxGeometry relative="1" as="geometry"/>
                </mxCell>
                <mxCell id="J99O9UZvICqlicOt4eDd-8" value="eth1" style="rounded=0;whiteSpace=wrap;html=1;fontFamily=Noto Sans JP;fontSource=https%3A%2F%2Ffonts.googleapis.com%2Fcss%3Ffamily%3DNoto%2BSans%2BJP;" parent="1" vertex="1">
                    <mxGeometry x="200.46000000000004" y="276" width="29" height="23.5" as="geometry"/>
                </mxCell>
                <mxCell id="J99O9UZvICqlicOt4eDd-9" value="eth1" style="rounded=0;whiteSpace=wrap;html=1;fontFamily=Noto Sans JP;fontSource=https%3A%2F%2Ffonts.googleapis.com%2Fcss%3Ffamily%3DNoto%2BSans%2BJP;" parent="1" vertex="1">
                    <mxGeometry x="304.00000000000006" y="276" width="29" height="23.5" as="geometry"/>
                </mxCell>
                <mxCell id="J99O9UZvICqlicOt4eDd-16" style="edgeStyle=orthogonalEdgeStyle;rounded=0;orthogonalLoop=1;jettySize=auto;html=1;exitX=0.5;exitY=0;exitDx=0;exitDy=0;entryX=0.5;entryY=1;entryDx=0;entryDy=0;fontFamily=Noto Sans JP;fontSource=https%3A%2F%2Ffonts.googleapis.com%2Fcss%3Ffamily%3DNoto%2BSans%2BJP;endArrow=none;endFill=0;" parent="1" source="J99O9UZvICqlicOt4eDd-11" target="J99O9UZvICqlicOt4eDd-12" edge="1">
                    <mxGeometry relative="1" as="geometry"/>
                </mxCell>
                <mxCell id="J99O9UZvICqlicOt4eDd-11" value="vmbr" style="rounded=0;whiteSpace=wrap;html=1;fontFamily=Noto Sans JP;fontSource=https%3A%2F%2Ffonts.googleapis.com%2Fcss%3Ffamily%3DNoto%2BSans%2BJP;" parent="1" vertex="1">
                    <mxGeometry x="247" y="145" width="39" height="23.5" as="geometry"/>
                </mxCell>
                <mxCell id="J99O9UZvICqlicOt4eDd-19" style="edgeStyle=orthogonalEdgeStyle;rounded=0;orthogonalLoop=1;jettySize=auto;html=1;exitX=0.5;exitY=0;exitDx=0;exitDy=0;entryX=0.55;entryY=0.95;entryDx=0;entryDy=0;fontFamily=Noto Sans JP;fontSource=https%3A%2F%2Ffonts.googleapis.com%2Fcss%3Ffamily%3DNoto%2BSans%2BJP;endArrow=none;endFill=0;entryPerimeter=0;" parent="1" source="J99O9UZvICqlicOt4eDd-12" target="J99O9UZvICqlicOt4eDd-20" edge="1">
                    <mxGeometry relative="1" as="geometry">
                        <mxPoint x="266.5049999999999" y="82.99999999999989" as="targetPoint"/>
                    </mxGeometry>
                </mxCell>
                <mxCell id="J99O9UZvICqlicOt4eDd-12" value="enp" style="rounded=0;whiteSpace=wrap;html=1;fontFamily=Noto Sans JP;fontSource=https%3A%2F%2Ffonts.googleapis.com%2Fcss%3Ffamily%3DNoto%2BSans%2BJP;" parent="1" vertex="1">
                    <mxGeometry x="247" y="99.5" width="39" height="23.5" as="geometry"/>
                </mxCell>
                <mxCell id="J99O9UZvICqlicOt4eDd-20" value="Internet" style="ellipse;shape=cloud;whiteSpace=wrap;html=1;fontFamily=Noto Sans JP;fontSource=https%3A%2F%2Ffonts.googleapis.com%2Fcss%3Ffamily%3DNoto%2BSans%2BJP;" parent="1" vertex="1">
                    <mxGeometry x="200.45999999999998" y="28" width="120" height="58" as="geometry"/>
                </mxCell>
                <mxCell id="2" value="10.1.1.0/30" style="text;html=1;align=center;verticalAlign=middle;resizable=0;points=[];autosize=1;strokeColor=none;" vertex="1" parent="1">
                    <mxGeometry x="231.5" y="324" width="70" height="18" as="geometry"/>
                </mxCell>
                <mxCell id="3" value=".1" style="text;html=1;align=center;verticalAlign=middle;resizable=0;points=[];autosize=1;strokeColor=none;" vertex="1" parent="1">
                    <mxGeometry x="200.45999999999998" y="299.5" width="20" height="18" as="geometry"/>
                </mxCell>
                <mxCell id="4" value=".2" style="text;html=1;align=center;verticalAlign=middle;resizable=0;points=[];autosize=1;strokeColor=none;" vertex="1" parent="1">
                    <mxGeometry x="313" y="299.5" width="20" height="18" as="geometry"/>
                </mxCell>
            </root>
        </mxGraphModel>
    </diagram>
</mxfile>